<?xml version="1.0"?>
<svg width="48" height="48" xmlns="http://www.w3.org/2000/svg">
    <g>
        <title>background</title>
        <rect x="-1" y="-1" width="50" height="50" id="canvas_background" fill="none"/>
    </g>
    <g>
        <title>Layer 1</title>
        <path fill-rule="evenodd"
              d="m24.080351,1.1859c-12.401091,0 -22.445371,10.45785 -22.445371,23.36955c0,10.34103 6.42499,19.07539 15.347011,22.171848c1.12228,0.204483 1.543139,-0.496578 1.543139,-1.11005c0,-0.555038 -0.028059,-2.39539 -0.028059,-4.352577c-5.63941,1.080849 -7.09836,-1.431381 -7.54726,-2.74593c-0.25252,-0.671871 -1.34673,-2.745911 -2.30067,-3.300941c-0.78559,-0.43819 -1.90786,-1.51902 -0.02803,-1.548229c1.76756,-0.029209 3.03012,1.694279 3.45097,2.395378c2.02007,3.534641 5.246591,2.541451 6.53721,1.92799c0.196402,-1.519009 0.785591,-2.541439 1.430891,-3.125698c-4.99411,-0.584221 -10.21264,-2.599842 -10.21264,-11.538712c0,-2.54142 0.86975,-4.64468 2.30063,-6.28055c-0.22445,-0.584249 -1.01004,-2.97963 0.22446,-6.192929c0,0 1.879821,-0.613461 6.1725,2.39538c1.795631,-0.52582 3.70348,-0.78873 5.611341,-0.78873c1.907829,0 3.81572,0.26291 5.611349,0.78873c4.29265,-3.03806 6.17248,-2.39538 6.17248,-2.39538c1.234489,3.2133 0.448902,5.60868 0.224449,6.192929c1.430882,1.63587 2.300632,3.709921 2.300632,6.28055c0,8.968082 -5.246601,10.954491 -10.240702,11.538712c0.813641,0.730309 1.51507,2.132481 1.51507,4.323368c0,3.125702 -0.028059,5.637913 -0.028059,6.42664c0,0.613472 0.420849,1.343742 1.54311,1.11005a22.481859,23.407511 0 0 0 15.290918,-22.171848c0,-12.9117 -10.0443,-23.36955 -22.445368,-23.36955z"
              id="svg_1" opacity="0.75"/>
        <path opacity="0.8" id="svg_10"
              d="m18.77709,21.218702l-2.467226,2.077538l2.467226,2.077467l-1.409992,1.188019l-3.877231,-3.265486l3.877231,-3.265789"/>
        <path opacity="0.8" id="svg_11"
              d="m29.302414,25.242403l2.466959,-2.028238l-2.466959,-2.028307l1.409966,-1.1591l3.877254,3.187407l-3.877254,3.188362"/>
        <text opacity="0.8" transform="matrix(0.595019 0 0 0.298185 9.00126 19.6927)" font-weight="bold"
              xml:space="preserve" text-anchor="start" font-family="'Courier New', Courier, monospace" font-size="24"
              id="svg_17" y="19.196428" x="18.489476">/</text>
    </g>
</svg>